# xmcd CD database file generated by MAGIX-FreeDB-MP3_Maker_15 v2.0beta1
#
# Track frame offsets:
#      150
#      17562
#      26707
#      35987
#      49177
#      67057
#      80610
#      94345
#      105267
#      114607
#      125535
#      138425
#
# Disc length: 2037 seconds
#
# Revision: 4
# Processed by: cddbd v1.5.2PL0 Copyright (c) Steve Scherf et al.
# Submitted via: MAGIX-FreeDB-MP3_Maker_15 v2.0beta1
#
DISCID=a807f30c
DTITLE=King Ricky - Fantastic Guitar Hits
DYEAR=1977
DGENRE=Instrumental
TTITLE0=King Ricky - Verde
TTITLE1=King Ricky - Wheels
TTITLE2=King Ricky - Ghostriders In The Sky
TTITLE3=King Ricky - Johnny Guitar
TTITLE4=King Ricky - Maria Elena
TTITLE5=King Ricky - Apache
TTITLE6=King Ricky - Amorada
TTITLE7=King Ricky - Havah Naglia
TTITLE8=King Ricky - Go-Kart
TTITLE9=King Ricky - Walk, Don't Run
TTITLE10=King Ricky - Sleep Walk
TTITLE11=King Ricky - Jumbo Walk
EXTD=
EXTT0=
EXTT1=
EXTT2=
EXTT3=
EXTT4=
EXTT5=
EXTT6=
EXTT7=
EXTT8=
EXTT9=
EXTT10=
EXTT11=
PLAYORDER=
